<?xml version="1.0" encoding="utf-8"?>
<!-- Generator: Adobe Illustrator 15.0.2, SVG Export Plug-In . SVG Version: 6.00 Build 0)  -->
<!DOCTYPE svg PUBLIC "-//W3C//DTD SVG 1.1//EN" "http://www.w3.org/Graphics/SVG/1.1/DTD/svg11.dtd">
<svg version="1.1" id="GitHub" xmlns="http://www.w3.org/2000/svg" xmlns:xlink="http://www.w3.org/1999/xlink" x="0px" y="0px"
	 width="64px" height="64px" viewBox="0 0 64 64" enable-background="new 0 0 64 64" xml:space="preserve">
<rect fill="#111111" width="64" height="64"/>
<path fill-rule="evenodd" clip-rule="evenodd" fill="#FFFFFF" d="M31.999,6.643C17.642,6.643,6,18.283,6,32.645
	c0,11.485,7.449,21.23,17.783,24.667c1.301,0.239,1.773-0.563,1.773-1.251c0-0.618-0.021-2.256-0.033-4.423
	c-7.232,1.57-8.758-3.487-8.758-3.487c-1.184-3.001-2.889-3.801-2.889-3.801c-2.36-1.614,0.179-1.583,0.179-1.583
	c2.611,0.188,3.982,2.683,3.982,2.683c2.32,3.972,6.086,2.822,7.567,2.159c0.236-1.681,0.906-2.826,1.65-3.476
	c-5.772-0.655-11.842-2.887-11.842-12.85c0-2.838,1.014-5.158,2.676-6.977c-0.268-0.658-1.162-3.301,0.254-6.881
	c0,0,2.183-0.7,7.15,2.666c2.074-0.579,4.298-0.866,6.508-0.877c2.207,0.011,4.432,0.298,6.509,0.877
	c4.965-3.366,7.145-2.666,7.145-2.666c1.419,3.58,0.524,6.223,0.257,6.881c1.667,1.818,2.674,4.139,2.674,6.977
	c0,9.988-6.079,12.186-11.871,12.83c0.933,0.802,1.765,2.389,1.765,4.813c0,3.477-0.031,6.28-0.031,7.134
	c0,0.693,0.467,1.502,1.786,1.248C50.556,53.865,58,44.127,58,32.645C58,18.283,46.359,6.643,31.999,6.643"/>
</svg>
